<svg id="Layer_1" data-name="Layer 1" xmlns="http://www.w3.org/2000/svg" viewBox="0 0 512 512"><title>caduceus-flat</title><rect width="512" height="512" fill="#ffa726"/><path d="M257.11,105.45a14,14,0,1,0,13.79,14.25A14,14,0,0,0,257.11,105.45Z" fill="#fff"/><path d="M261.3,135.63l-9.36-.15a1.9,1.9,0,0,0-.06,3.8l9.35.15a1.9,1.9,0,1,0,.07-3.8Z" fill="#fff"/><path d="M256.53,141.39c-1.73,0-3.14.51-3.18,3l-1,92.9.08,0,3.25-1.62a4.7,4.7,0,0,1,1.5-.47l.6-.28,1.8-90.41C259.65,142,258.26,141.42,256.53,141.39Z" fill="#fff"/><path d="M251.87,286.33a14.69,14.69,0,0,1,4.94-.94l.2-9.79a28.13,28.13,0,0,1-5,.37Z" fill="#fff"/><path d="M254.27,342c-1,.42-2,.82-3,1.18l-.09,9.26.36.33.08.1.21.2a3.31,3.31,0,0,1,.25.31,11.22,11.22,0,0,1,2.81-1.24,4.28,4.28,0,0,1,.6-.12l.19-9.56a3.79,3.79,0,0,1-.63-.13Z" fill="#fff"/><path d="M251,365.58l-.1,9.44a3.44,3.44,0,0,1,.55.54,3.86,3.86,0,0,1,.43.37l.07,0a4.09,4.09,0,0,1,3-.51l.24-11.77a12.6,12.6,0,0,1-1.62-.26C252.77,364.11,251.92,364.86,251,365.58Z" fill="#fff"/><path d="M252.76,385.59c-.64.37-1.28.72-1.93,1.06l-.19,18a1.9,1.9,0,0,0,3.8.06l.36-18.45a3.8,3.8,0,0,1-1.07-.27A4.4,4.4,0,0,1,252.76,385.59Z" fill="#fff"/><path d="M255.67,319.66l0,0a5.55,5.55,0,0,1-1.47-1c-.89.23-1.76.47-2.64.74l-.11,10.88a4.38,4.38,0,0,1,1.66,1,20,20,0,0,1,2.6-.56l.24,0,.22-10.77-.45-.21Z" fill="#fff"/><path d="M251.67,306.06a4.73,4.73,0,0,1,.7.93c.07.14.13.28.19.42,1.11-.37,2.22-.72,3.35-1a4.19,4.19,0,0,1,.48-.11l.16-8.15c-1.6.45-3.21.85-4.83,1.3Z" fill="#fff"/><path d="M252.2,254.31l-.09,8.9c1.42-.34,2.83-.68,4.22-1.09a5.69,5.69,0,0,1,.94-.18l.18-8.76a15.48,15.48,0,0,1-1.81-.26C254.52,253.42,253.37,253.88,252.2,254.31Z" fill="#fff"/><path d="M236.32,161.17c-5.44-2.84-.48-6.62,1.55-10.13s4.53-9.53,3.73-13.68c-1.08-5.53-7.16-9.53-12.32-10.43-6.51-1.14-10.16,1.21-15.35,4.44a89.77,89.77,0,0,1-16.14,8.49c-20.16,7.73-50.6,20.25-72.26,21.94,4.73,6.26,12.89,11.81,20.51,12.36-.49,3.84,6.73,8,9.78,9.11,3.7,1.34,9.4,1.35,12.85-.56,4.7,7.41,15.82,10.18,23,4.45.35,3.57,6.61,5.58,9.39,6.26,5.16,1.26,8-.48,12.8-1.49,3-.63,4.24,1.3,7.48,2.1a13.43,13.43,0,0,0,10-1c1.54-.73,1-1.2,2.58-1.05,1,.09,2.4,1.25,3.54,1.45,3.14.54,5.33-1.8,7.09-4s3.83-6.89,5.75-11.91l.16-15.37C245.26,162.7,238,162.07,236.32,161.17Z" fill="#fff"/><path d="M299.09,132.73c-5.08-3.4-8.65-5.86-15.2-4.93-5.18.73-11.4,4.54-12.65,10-.94,4.12,1.34,10.13,3.3,13.79s6.75,7.51,1.23,10.18c-1.71.82-8.66,1.22-13.89.58l-.32,16.39c1.65,4.67,3.42,8.94,5,11,1.68,2.24,3.79,4.64,7,4.21,1.14-.16,2.62-1.27,3.58-1.33,1.64-.09,1,.36,2.54,1.14a13.43,13.43,0,0,0,10,1.32c3.27-.69,4.57-2.59,7.54-1.86,4.74,1.17,7.55,3,12.76,1.9,2.8-.59,9.12-2.4,9.59-6,7,6,18.23,3.56,23.16-3.7,3.4,2,9.09,2.19,12.84,1,3.08-1,10.43-4.94,10.05-8.79,7.64-.3,16-5.59,20.9-11.69-21.59-2.39-51.61-15.88-71.51-24.25A90.14,90.14,0,0,1,299.09,132.73Z" fill="#fff"/><path d="M221,222.11c-4.26-3,1.12-5.91,3.24-6.63,5.66-1.91,11.86-3.92,16.58-8,1.79-1.55,4.62-6.31,1.83-8.31-2.06-1.48-8.17,0-10.48.28-3.1.4-7,.74-9.75,2.59-1.61,1.09-10.31,4.06-13.6,12.17a13.79,13.79,0,0,0,1.73,13.18c5.71,6.68,11.78,9.13,18.3,12.49,1.75.83,4.58,2.13,8.34,3.79.55-.52,10.69-4,14.48-6.5-8.65-3.78-14.81-6.66-17.74-8A86.21,86.21,0,0,1,221,222.11Z" fill="#fff"/><path d="M255.76,381.86c-.88.9-1.22,1.44-2.16,2.34.28.32.89.94,1.14,1.26,5,5.89,1.75,10.39,2.37,10.52.1.08,1.16-.6,1.91-2.78s.28-5.9-2-9.33A19.46,19.46,0,0,0,255.76,381.86Z" fill="#fff"/><path d="M262.47,337.61l-.17.13a69.89,69.89,0,0,1-6.8,4.12,58.48,58.48,0,0,1,6.45,3.79c.53.35-2,4.09-4.56,5.75-2.63,2.19-5.55,4.15-8.29,6.28s-5.55,4.34-7.21,8.06c-1.85,4.15.34,8,2.87,10.17,1.19,1,3.08,3.19,4.12,4.11.22-.53,1.79-1.58,2.27-2.7-5.51-4.77-8.85-10.49,1-15.46,2.67-1.86,5.69-3.66,8.77-6a27.91,27.91,0,0,0,4.57-4.18c1.16-1.66,3.87-4,2.38-8A10.45,10.45,0,0,0,262.47,337.61Z" fill="#fff"/><path d="M271.07,293.69c-.4.26-9.18,3.48-13,5.2,1.82.54,3.64,1.08,5.38,1.66a17.85,17.85,0,0,1,2.88,1.09,3.58,3.58,0,0,1-.76.81,15.63,15.63,0,0,1-4.73,2.76c-4.1,1.84-8.34,3.66-12.5,5.63-4.24,2.48-8.32,2.69-12.87,8.66-2.62,3.43-.61,8.6,1.23,10.35a25.45,25.45,0,0,0,5.73,4.91c.68.45,1.37.87,2,1.27,2.23-1.72,4.83-2.56,7.14-4-1.78-1-3.52-2.08-5.11-3.21-3.36-2.12-5.54-5.61-4.48-5.31.8-1.23,6-3.69,9.67-5.26,4.05-1.77,8.24-3.4,12.56-5.21a24,24,0,0,0,7.15-4.09c1.8-1.73,6.31-5.49,3.3-11.28A9,9,0,0,0,271.07,293.69Z" fill="#fff"/><path d="M279.18,248.62a71,71,0,0,0-7-3.06c-2.45,1.82-12.82,5.64-15.06,6.5,2.55,1,5.25,2.07,8.11,3.14a82.09,82.09,0,0,1,9,3.56c.73.36,1.46.73,2.14,1.12-1,.36-2.14.67-3.27,1a107.52,107.52,0,0,1-11.5,2.2c-7.8,1.25-17.53.94-27,5.83-2.46,1.27-5,2.47-7.4,6a9.05,9.05,0,0,0-.9,7.38,12.68,12.68,0,0,0,3.28,4.87,31.71,31.71,0,0,0,6.81,4.44,53.12,53.12,0,0,0,7.71-2.66c.57-.21,1.14-.39,1.71-.57q2.17-.87,4.35-1.7c-1.16-.39-2.31-.78-3.41-1.2-4-1.5-8.21-3.48-10.36-5.51a.84.84,0,0,1-.22-.15,15.79,15.79,0,0,1,2.84-1.71c6.8-3.21,15.24-3.29,24-4.41a116.33,116.33,0,0,0,12.76-2.22,66.23,66.23,0,0,0,6.39-2c3.77-1.4,6.24-3.22,7.7-7.73C292,255,281,249.53,279.18,248.62Z" fill="#fff"/><path d="M258.35,359.27c-1.26,1-3.18,2.83-3.85,3.22,13.09,7.89-3.36,14.53-6.57,21.24-2.4,3.35-3,7.08-2.31,9.26s1.72,2.92,1.82,2.84c.63-.11-2.51-4.71,2.71-10.44,2.36-2.87,6-5.56,10.28-9.22,2.16-1.74,4.91-5.87,3.19-10.07A18.45,18.45,0,0,0,258.35,359.27Z" fill="#fff"/><path d="M265.17,314s-6.37,3.22-9.28,4.52c3.55,1.69,8.19,4.11,8.9,5.3,1.07-.26-1.22,3.15-4.64,5.16-3.23,2.16-7,4-10.57,5.93-3.12,2-8.61,1.76-11.26,8.26-1.62,4,1,6.41,2.11,8.1a28.54,28.54,0,0,0,4.44,4.32c.57.46,1.13.88,1.7,1.3,1.73-1,3.48-2,5.22-3-1.1-.87-2.18-1.75-3.21-2.66-2.47-1.74-4.91-5.56-4.37-5.89a52.52,52.52,0,0,1,8.34-4.34c3.68-1.88,7.52-3.49,11.49-5.91a26.05,26.05,0,0,0,5.89-4.73c1.89-1.69,4.06-6.79,1.55-10.31C269.19,316.85,267.38,315.24,265.17,314Z" fill="#fff"/><path d="M278,272.11c-2.92,1-14.45,3.17-17.08,3.68a33.83,33.83,0,0,1,8.37,2.81,15.44,15.44,0,0,1,2.78,1.8.92.92,0,0,1-.22.14c-2.21,2-6.51,3.8-10.53,5.17s-8.56,2.47-13.11,3.79c-2.27.65-4.53,1.31-6.83,2.05-2,1-5.73.57-8.46,5.42-3.19,5.68,1.19,9.59,2.93,11.37a20.47,20.47,0,0,0,5.6,3.66c3.28-1.35,6.65-2.47,9.93-3.8l.86-.49c-1.93-.92-3.84-1.84-5.71-2.76a15.9,15.9,0,0,1-4.64-2.91,3.74,3.74,0,0,1-.73-.83,18,18,0,0,1,2.92-1c2.12-.62,4.34-1.21,6.56-1.78,4.37-1.16,9-2.1,13.68-3.61s9.23-3,14.1-6.88a12.7,12.7,0,0,0,3.44-4.76,9.07,9.07,0,0,0-.67-7.4A15.32,15.32,0,0,0,278,272.11Z" fill="#fff"/><path d="M288.37,203.08c-2.67-1.93-6.58-2.39-9.66-2.89-2.31-.38-8.37-2-10.47-.61-2.85,1.91-.18,6.76,1.56,8.36,4.59,4.24,10.72,6.44,16.32,8.54,2.1.78,7.39,3.85,3,6.73A85.72,85.72,0,0,1,276,229.78c-3.14,1.36-10,4.27-19.54,8.08-4.79,1.89-10.29,4-16.27,6.14a92.78,92.78,0,0,0-10.1,3.84c-1.8.85-13,6-11.05,12.79,1.32,4.56,3.73,6.45,7.45,8,1.37.56,2.7,1,4,1.47a4.55,4.55,0,0,1,.83-.76c3.82-2.77,8.07-5.63,12.64-7.09-2.85-.56-5.59-1.19-8.14-1.95-1.12-.35-2.22-.71-3.25-1.1.69-.36,1.44-.72,2.19-1.05a82.3,82.3,0,0,1,9.07-3.27c6.38-2.14,12-4.23,16.86-6.1,9.79-3.76,16.74-6.66,20-8.07,6.64-3.14,12.77-5.41,18.7-11.9a13.76,13.76,0,0,0,2.15-13.11C298.54,207.47,289.94,204.22,288.37,203.08Z" fill="#fff"/></svg>